<svg xmlns="http://www.w3.org/2000/svg" width="16" height="16" viewBox="0 0 16 16" fill="none">
<path d="M11.8334 7.16634H9.00004C8.908 7.16634 8.83337 7.09172 8.83337 6.99967V4.16634C8.83337 3.70614 8.46025 3.33301 8.00004 3.33301C7.53984 3.33301 7.16671 3.70614 7.16671 4.16634V6.99967C7.16671 7.09172 7.09208 7.16634 7.00004 7.16634H4.16671C3.7065 7.16634 3.33337 7.53947 3.33337 7.99967C3.33337 8.45988 3.7065 8.83301 4.16671 8.83301H7.00004C7.09208 8.83301 7.16671 8.90763 7.16671 8.99967V11.833C7.16671 12.2932 7.53984 12.6663 8.00004 12.6663C8.46025 12.6663 8.83337 12.2932 8.83337 11.833V8.99967C8.83337 8.90763 8.908 8.83301 9.00004 8.83301H11.8334C12.2936 8.83301 12.6667 8.45988 12.6667 7.99967C12.6667 7.53947 12.2936 7.16634 11.8334 7.16634Z" fill="white"/>
</svg>