<svg xmlns="http://www.w3.org/2000/svg" width="12" height="12" viewBox="0 0 12 12" fill="none">
<path d="M11.8974 5.73267L8.29759 1.73289C8.22079 1.64809 8.1136 1.6001 8.00001 1.6001H5.60014C5.44254 1.6001 5.29935 1.69289 5.23455 1.83688C5.17056 1.98168 5.19696 2.15047 5.30255 2.26726L8.66157 5.99986L5.30255 9.73166C5.19696 9.84925 5.16976 10.018 5.23455 10.162C5.29935 10.3068 5.44254 10.3996 5.60014 10.3996H8.00001C8.1136 10.3996 8.22079 10.3508 8.29759 10.2676L11.8974 6.26784C12.0342 6.11585 12.0342 5.88387 11.8974 5.73267Z" fill="#6C4FF7"/>
<path d="M6.69769 5.73267L3.09788 1.73289C3.02109 1.64809 2.91389 1.6001 2.8003 1.6001H0.400428C0.242837 1.6001 0.0996444 1.69289 0.0348479 1.83688C-0.0291486 1.98168 -0.00275003 2.15047 0.102844 2.26726L3.46186 5.99986L0.102844 9.73166C-0.00275003 9.84925 -0.0299486 10.018 0.0348479 10.162C0.0996444 10.3068 0.242837 10.3996 0.400428 10.3996H2.8003C2.91389 10.3996 3.02109 10.3508 3.09788 10.2676L6.69769 6.26784C6.83448 6.11585 6.83448 5.88387 6.69769 5.73267Z" fill="#6C4FF7"/>
</svg>