<svg width="16" height="16" viewBox="0 0 16 16" fill="none" xmlns="http://www.w3.org/2000/svg">
<path d="M10.589 2.6665H4.75791C4.37555 2.67189 4.01092 2.82861 3.7439 3.10233C3.47688 3.37605 3.32924 3.74445 3.33333 4.12682V12.47C3.33231 12.6366 3.38012 12.7999 3.47087 12.9397C3.56161 13.0794 3.69131 13.1895 3.84393 13.2563C3.98884 13.3248 4.15094 13.3483 4.3093 13.3237C4.46767 13.2991 4.61504 13.2276 4.73238 13.1185L7.46409 10.6982C7.52647 10.6485 7.60388 10.6215 7.68365 10.6215C7.76341 10.6215 7.84082 10.6485 7.9032 10.6982L10.6349 13.1185C10.753 13.2264 10.9002 13.2971 11.0583 13.3216C11.2164 13.3462 11.3782 13.3234 11.5234 13.2563C11.676 13.1895 11.8057 13.0794 11.8964 12.9397C11.9872 12.7999 12.035 12.6366 12.034 12.47V4.12682C12.036 3.93577 12.0001 3.74622 11.9284 3.56914C11.8567 3.39205 11.7506 3.23094 11.6162 3.09514C11.4818 2.95933 11.3218 2.85152 11.1455 2.77794C10.9692 2.70437 10.78 2.66649 10.589 2.6665Z" fill="#6C4FF7"/>
</svg>
