<svg xmlns="http://www.w3.org/2000/svg" width="10" height="10" viewBox="0 0 10 10" fill="none">
<path d="M1.21776 9.66209C0.988937 9.67555 0.763894 9.5986 0.59009 9.44745C0.247314 9.09862 0.247314 8.53524 0.59009 8.18642L8.09576 0.593383C8.45227 0.255896 9.01171 0.274657 9.34531 0.635322C9.64698 0.96147 9.66457 1.46277 9.38648 1.80971L1.83659 9.44745C1.66503 9.59642 1.44359 9.67323 1.21776 9.66209Z" fill="#ADB2B8"/>
<path d="M8.71457 9.662C8.48265 9.661 8.26038 9.56787 8.09571 9.40265L0.590018 1.80959C0.272454 1.43443 0.315629 0.869841 0.686469 0.548552C1.01745 0.261811 1.50559 0.261811 1.83655 0.548552L9.38644 8.14159C9.74287 8.47916 9.7613 9.04513 9.4276 9.40571C9.41433 9.42006 9.40061 9.43393 9.38644 9.44736C9.20157 9.60999 8.95827 9.68771 8.71457 9.662Z" fill="#ADB2B8"/>
</svg>