<svg xmlns="http://www.w3.org/2000/svg" width="25" height="24" viewBox="0 0 25 24" fill="none">
<path d="M17.3689 20.2082C17.1624 20.6623 16.8295 21.0474 16.41 21.3174C15.9905 21.5874 15.5021 21.7309 15.0032 21.7308H7.02937C6.68825 21.7308 6.35046 21.6637 6.0353 21.5332C5.72014 21.4026 5.43378 21.2113 5.19257 20.9701C4.95136 20.7289 4.76004 20.4425 4.62952 20.1274C4.499 19.8122 4.43184 19.4744 4.43189 19.1333V7.50085C4.4316 7.00192 4.57505 6.51347 4.84507 6.09393C5.1151 5.67439 5.50027 5.34151 5.95451 5.13513V18.1373C5.95442 18.4093 6.00792 18.6787 6.11195 18.93C6.21598 19.1813 6.36851 19.4097 6.56081 19.6021C6.75312 19.7944 6.98144 19.947 7.23273 20.0511C7.48402 20.1553 7.75336 20.2088 8.02537 20.2088L17.3689 20.2082ZM13.7734 7.36062V2.26953H9.66286C9.32162 2.26953 8.98373 2.33678 8.6685 2.46742C8.35326 2.59807 8.06687 2.78956 7.82567 3.03094C7.58448 3.27233 7.39322 3.55888 7.26282 3.87422C7.13242 4.18955 7.06544 4.5275 7.06571 4.86873V17.3042C7.06599 17.7798 7.25514 18.2359 7.59158 18.5722C7.92802 18.9084 8.38422 19.0973 8.85988 19.0973H17.637C17.9781 19.0973 18.3159 19.0301 18.631 18.8996C18.9462 18.769 19.2325 18.5777 19.4737 18.3365C19.7149 18.0953 19.9063 17.809 20.0368 17.4938C20.1673 17.1787 20.2345 16.8409 20.2345 16.4998V8.92747H15.3389C14.9235 8.92711 14.5254 8.76187 14.2318 8.46807C13.9383 8.17426 13.7734 7.77594 13.7734 7.36062ZM14.6727 2.26953L20.2349 8.04942H15.4784C15.2647 8.04942 15.0598 7.96453 14.9087 7.81343C14.7576 7.66233 14.6727 7.45739 14.6727 7.2437V2.26953Z" fill="#1E0F67"/>
</svg>