<svg width="16" height="16" viewBox="0 0 16 16" fill="none" xmlns="http://www.w3.org/2000/svg">
<g id="Icon/Logout">
<path id="Vector" d="M12.5 11.9999V12.6666C12.5 13.3066 11.9733 13.8333 11.3333 13.8333H8.72C8.79334 13.6133 8.83334 13.3866 8.83334 13.1466V12.8333H11.3333C11.4267 12.8333 11.5 12.7599 11.5 12.6666V11.9999C11.5 11.7266 11.7267 11.4999 12 11.4999C12.2733 11.4999 12.5 11.7266 12.5 11.9999ZM8.83334 3.16659H11.3333C11.4267 3.16659 11.5 3.23992 11.5 3.33325V3.99992C11.5 4.27325 11.7267 4.49992 12 4.49992C12.2733 4.49992 12.5 4.27325 12.5 3.99992V3.33325C12.5 2.69325 11.9733 2.16659 11.3333 2.16659H8.72C8.79334 2.38659 8.83334 2.61325 8.83334 2.85325V3.16659ZM14.3533 7.64659L12.3533 5.64659C12.16 5.45325 11.84 5.45325 11.6467 5.64659C11.4533 5.83992 11.4533 6.15992 11.6467 6.35325L12.7933 7.49992H9.33334C9.06 7.49992 8.83334 7.72659 8.83334 7.99992C8.83334 8.27325 9.06 8.49992 9.33334 8.49992H12.7933L11.6467 9.64659C11.4533 9.83992 11.4533 10.1599 11.6467 10.3533C11.7467 10.4533 11.8733 10.4999 12 10.4999C12.1267 10.4999 12.2533 10.4533 12.3533 10.3533L14.3533 8.35325C14.5467 8.15992 14.5467 7.83992 14.3533 7.64659ZM7.38534 1.93459C7.1 1.71192 6.73734 1.63392 6.384 1.72192L2.384 2.72192C1.864 2.85192 1.50067 3.31792 1.50067 3.85392V12.1459C1.50067 12.6826 1.864 13.1479 2.384 13.2779L6.38467 14.2779C6.47934 14.3013 6.57467 14.3133 6.66934 14.3133C6.92667 14.3133 7.17734 14.2279 7.38534 14.0653C7.67 13.8426 7.83334 13.5079 7.83334 13.1459V2.85392C7.83334 2.49192 7.67 2.15725 7.38534 1.93459Z" fill="#93999E"/>
</g>
</svg>
