<svg width="23" height="26" viewBox="0 0 23 26" fill="none" xmlns="http://www.w3.org/2000/svg">
<path fill-rule="evenodd" clip-rule="evenodd" d="M4.86039 3.94632C6.49384 2.37997 8.70927 1.5 11.0193 1.5C13.3294 1.5 15.5448 2.37997 17.1782 3.94632C18.8117 5.51268 19.7293 7.63711 19.7293 9.85227V16.367L21.6572 19.1344C21.8928 19.4763 22.0277 19.8729 22.0475 20.2823C22.0672 20.6917 21.9711 21.0985 21.7693 21.4598C21.5676 21.8211 21.2677 22.1233 20.9014 22.3344C20.5351 22.5455 20.1161 22.6577 19.6887 22.6591H2.34993C1.9253 22.6558 1.5094 22.5431 1.14575 22.3328C0.782104 22.1226 0.484078 21.8224 0.282861 21.4638C0.0816434 21.1053 -0.0153681 20.7014 0.00197773 20.2945C0.0193236 19.8877 0.150389 19.4928 0.381459 19.1511L2.30928 16.367V9.85227C2.30928 7.63711 3.22694 5.51268 4.86039 3.94632ZM13.0285 25.3858C12.4411 25.7847 11.7392 25.9992 11.0194 26C10.2996 25.9992 9.59773 25.7847 9.01026 25.3858C8.42278 24.987 7.97855 24.4235 7.73862 23.7727H14.3002C14.0602 24.4235 13.616 24.987 13.0285 25.3858Z" fill="#4120DF"/>
<circle cx="18" cy="4" r="4" fill="#E2444D"/>
</svg>
