<svg width="16" height="16" viewBox="0 0 16 16" fill="none" xmlns="http://www.w3.org/2000/svg">
<path d="M11.8333 7.16683H8.99998C8.90794 7.16683 8.83331 7.0922 8.83331 7.00016V4.16683C8.83331 3.70662 8.46019 3.3335 7.99998 3.3335C7.53977 3.3335 7.16665 3.70662 7.16665 4.16683V7.00016C7.16665 7.0922 7.09202 7.16683 6.99998 7.16683H4.16665C3.70644 7.16683 3.33331 7.53996 3.33331 8.00016C3.33331 8.46037 3.70644 8.8335 4.16665 8.8335H6.99998C7.09202 8.8335 7.16665 8.90812 7.16665 9.00016V11.8335C7.16665 12.2937 7.53977 12.6668 7.99998 12.6668C8.46019 12.6668 8.83331 12.2937 8.83331 11.8335V9.00016C8.83331 8.90812 8.90794 8.8335 8.99998 8.8335H11.8333C12.2935 8.8335 12.6666 8.46037 12.6666 8.00016C12.6666 7.53996 12.2935 7.16683 11.8333 7.16683Z" fill="white"/>
</svg>
