<svg width="14" height="14" viewBox="0 0 14 14" fill="none" xmlns="http://www.w3.org/2000/svg">
<g id="Group">
<g id="search_1_">
<path id="Vector" d="M6.16455 12.0001C9.38503 12.0001 11.9958 9.38848 11.9958 6.1668C11.9958 2.94513 9.38506 0.333496 6.16455 0.333496C2.94404 0.333496 0.333333 2.94515 0.333333 6.16683C0.333333 9.38851 2.94407 12.0001 6.16455 12.0001ZM6.16455 2.00017C8.46491 2.00017 10.3297 3.86564 10.3297 6.16683C10.3297 8.46802 8.46491 10.3335 6.16455 10.3335C3.86419 10.3335 1.9994 8.46802 1.9994 6.16683C1.9994 3.86564 3.86422 2.00017 6.16455 2.00017Z" fill="#93999E"/>
<path id="Vector_2" d="M12.8288 13.6666C13.0502 13.6679 13.2631 13.5809 13.4203 13.4249C13.7469 13.1008 13.7491 12.5732 13.4251 12.2464C13.4235 12.2448 13.4219 12.2432 13.4203 12.2416L10.2881 9.10825C9.94992 8.78147 9.41099 8.79081 9.08432 9.12907C8.75766 9.46734 8.76699 10.0065 9.10514 10.3333L12.2374 13.4249C12.3946 13.5809 12.6074 13.6679 12.8288 13.6666Z" fill="#93999E"/>
</g>
</g>
</svg>
