<svg width="16" height="16" viewBox="0 0 16 16" fill="none" xmlns="http://www.w3.org/2000/svg">
<path id="Vector" d="M15.0453 6.01892C14.7341 5.97372 14.4371 5.85889 14.1764 5.68299C13.9158 5.50709 13.6981 5.27464 13.5397 5.00297C13.3814 4.7313 13.2863 4.42739 13.2616 4.11389C13.237 3.80038 13.2834 3.48535 13.3973 3.19226C13.4698 3.00064 13.4805 2.79116 13.4279 2.59318C13.3753 2.39519 13.262 2.21864 13.104 2.08826C12.4064 1.50248 11.6124 1.04231 10.7573 0.728258C10.5626 0.655929 10.3501 0.646892 10.1499 0.702435C9.94977 0.757977 9.77226 0.875266 9.64267 1.03759C9.44762 1.28701 9.19833 1.48873 8.91372 1.62746C8.6291 1.7662 8.31663 1.8383 8.00001 1.8383C7.68338 1.8383 7.37091 1.7662 7.08629 1.62746C6.80168 1.48873 6.55239 1.28701 6.35734 1.03759C6.22775 0.875266 6.05024 0.757977 5.8501 0.702435C5.64995 0.646892 5.43738 0.655929 5.24267 0.728258C4.45316 1.0182 3.71499 1.4323 3.05601 1.95492C2.8899 2.08642 2.77025 2.26765 2.71459 2.47207C2.65893 2.67649 2.67017 2.89336 2.74668 3.09092C2.86975 3.39177 2.92059 3.71727 2.89514 4.04132C2.86969 4.36537 2.76865 4.67894 2.60012 4.95689C2.43159 5.23483 2.20026 5.46941 1.9247 5.6418C1.64914 5.8142 1.33701 5.91961 1.01334 5.94959C0.803215 5.97205 0.605851 6.06139 0.45031 6.20445C0.294769 6.34751 0.18927 6.53673 0.149345 6.74425C0.0500369 7.23583 1.15415e-05 7.73608 1.15415e-05 8.23759C-0.000718375 8.65744 0.0331742 9.07664 0.101345 9.49092C0.135273 9.70509 0.238809 9.90212 0.395947 10.0515C0.553085 10.201 0.755072 10.2945 0.970677 10.3176C1.30145 10.3486 1.61997 10.4584 1.89959 10.6379C2.1792 10.8173 2.41177 11.061 2.57784 11.3488C2.7439 11.6365 2.83863 11.9599 2.85408 12.2917C2.86954 12.6236 2.80528 12.9543 2.66668 13.2562C2.57597 13.4526 2.55347 13.6737 2.60275 13.8844C2.65203 14.095 2.77026 14.2831 2.93868 14.4189C3.63207 14.9941 4.41845 15.4468 5.26401 15.7576C5.37214 15.795 5.48559 15.8148 5.60001 15.8162C5.7569 15.8159 5.91142 15.778 6.05062 15.7056C6.18981 15.6332 6.30962 15.5285 6.40001 15.4002C6.59009 15.1233 6.84491 14.8969 7.14232 14.7408C7.43973 14.5846 7.77076 14.5034 8.10667 14.5042C8.43214 14.5047 8.75302 14.5811 9.04375 14.7273C9.33449 14.8736 9.58705 15.0858 9.78134 15.3469C9.91057 15.5206 10.0936 15.6467 10.302 15.7056C10.5104 15.7644 10.7323 15.7527 10.9333 15.6722C11.7065 15.3611 12.4263 14.931 13.0667 14.3976C13.2275 14.2646 13.3421 14.084 13.3938 13.8818C13.4456 13.6796 13.4319 13.4662 13.3547 13.2722C13.2292 12.9753 13.1745 12.6532 13.1949 12.3315C13.2153 12.0097 13.3101 11.6972 13.472 11.4184C13.6339 11.1396 13.8584 10.9023 14.1277 10.7251C14.3971 10.548 14.7039 10.4358 15.024 10.3976C15.2316 10.3689 15.4246 10.2748 15.5752 10.1291C15.7257 9.98334 15.8259 9.79345 15.8613 9.58692C15.947 9.14207 15.9934 8.69056 16 8.23759C16.0001 7.7598 15.9555 7.28305 15.8667 6.81359C15.8307 6.61161 15.7319 6.42612 15.5845 6.28347C15.437 6.14081 15.2484 6.04825 15.0453 6.01892ZM10.6667 8.23759C10.6667 8.765 10.5103 9.28057 10.2173 9.71911C9.92424 10.1576 9.50776 10.4994 9.02049 10.7013C8.53323 10.9031 7.99705 10.9559 7.47977 10.853C6.96248 10.7501 6.48733 10.4961 6.11439 10.1232C5.74145 9.75026 5.48747 9.27511 5.38458 8.75783C5.28169 8.24054 5.3345 7.70437 5.53633 7.2171C5.73816 6.72983 6.07996 6.31335 6.51849 6.02034C6.95702 5.72732 7.47259 5.57092 8.00001 5.57092C8.70725 5.57092 9.38553 5.85187 9.88562 6.35197C10.3857 6.85207 10.6667 7.53034 10.6667 8.23759Z" fill="#93999E"/>
</svg>
