<svg width="16" height="16" viewBox="0 0 16 16" fill="none" xmlns="http://www.w3.org/2000/svg">
<path d="M7.99394 1.3335C6.6754 1.3335 5.38647 1.72449 4.29014 2.45703C3.19381 3.18958 2.33933 4.23077 1.83474 5.44894C1.33016 6.66711 1.19814 8.00756 1.45537 9.30077C1.71261 10.594 2.34755 11.7819 3.2799 12.7142C4.21225 13.6466 5.40013 14.2815 6.69334 14.5387C7.98655 14.796 9.32699 14.6639 10.5452 14.1594C11.7633 13.6548 12.8045 12.8003 13.5371 11.704C14.2696 10.6076 14.6606 9.31871 14.6606 8.00016C14.6587 6.23265 13.9557 4.53808 12.7058 3.28826C11.456 2.03844 9.76145 1.33544 7.99394 1.3335ZM9.52327 7.1295L8.66127 6.26683V11.3268C8.66127 11.5036 8.59104 11.6732 8.46601 11.7982C8.34099 11.9233 8.17142 11.9935 7.99461 11.9935C7.8178 11.9935 7.64823 11.9233 7.5232 11.7982C7.39818 11.6732 7.32794 11.5036 7.32794 11.3268V6.26683L6.46661 7.12816C6.3416 7.25326 6.17202 7.32357 5.99518 7.32363C5.81833 7.32369 5.6487 7.2535 5.52361 7.1285C5.39851 7.00349 5.3282 6.83391 5.32814 6.65707C5.32808 6.48022 5.39827 6.31059 5.52327 6.1855L7.52327 4.1855C7.64829 4.06052 7.81783 3.99031 7.99461 3.99031C8.17138 3.99031 8.34092 4.06052 8.46594 4.1855L10.4659 6.1855C10.5874 6.31123 10.6546 6.47963 10.6531 6.65443C10.6515 6.82923 10.5814 6.99644 10.4578 7.12004C10.3342 7.24365 10.167 7.31376 9.99221 7.31528C9.81741 7.3168 9.64901 7.2496 9.52327 7.12816V7.1295Z" fill="#0D0D0E"/>
</svg>
