<svg width="20" height="20" viewBox="0 0 20 20" fill="none" xmlns="http://www.w3.org/2000/svg">
<path d="M20 16.1364C20 16.3775 19.9042 16.6087 19.7337 16.7792C19.5632 16.9497 19.332 17.0455 19.0909 17.0455H8.18182C7.94071 17.0455 7.70948 16.9497 7.53899 16.7792C7.36851 16.6087 7.27273 16.3775 7.27273 16.1364C7.27273 14.6897 7.8474 13.3023 8.87033 12.2794C9.89325 11.2565 11.2806 10.6818 12.7273 10.6818H14.5455C15.9921 10.6818 17.3795 11.2565 18.4024 12.2794C19.4253 13.3023 20 14.6897 20 16.1364ZM13.6364 2.5C12.9172 2.5 12.2141 2.71327 11.6161 3.11284C11.0181 3.51241 10.552 4.08033 10.2768 4.74479C10.0016 5.40925 9.92956 6.1404 10.0699 6.84578C10.2102 7.55117 10.5565 8.19911 11.0651 8.70766C11.5736 9.21622 12.2216 9.56255 12.9269 9.70286C13.6323 9.84317 14.3635 9.77115 15.0279 9.49593C15.6924 9.2207 16.2603 8.75462 16.6599 8.15662C17.0595 7.55862 17.2727 6.85557 17.2727 6.13636C17.2727 5.17194 16.8896 4.24702 16.2077 3.56507C15.5257 2.88312 14.6008 2.5 13.6364 2.5ZM5.45455 2.5C4.73534 2.5 4.03229 2.71327 3.43429 3.11284C2.83629 3.51241 2.37021 4.08033 2.09498 4.74479C1.81976 5.40925 1.74774 6.1404 1.88805 6.84578C2.02836 7.55117 2.37469 8.19911 2.88325 8.70766C3.3918 9.21622 4.03974 9.56255 4.74513 9.70286C5.45051 9.84317 6.18166 9.77115 6.84612 9.49593C7.51058 9.2207 8.0785 8.75462 8.47807 8.15662C8.87764 7.55862 9.09091 6.85557 9.09091 6.13636C9.09091 5.17194 8.70779 4.24702 8.02584 3.56507C7.34389 2.88312 6.41897 2.5 5.45455 2.5ZM5.45455 16.1364C5.45319 15.1815 5.64132 14.2358 6.00804 13.3541C6.37475 12.4724 6.91277 11.6723 7.59091 11C7.03594 10.7905 6.44775 10.6827 5.85455 10.6818H5.05455C3.71473 10.6842 2.43049 11.2175 1.4831 12.1649C0.535706 13.1123 0.00240325 14.3966 0 15.7364V16.1364C0 16.3775 0.0957789 16.6087 0.266267 16.7792C0.436754 16.9497 0.667985 17.0455 0.909091 17.0455H5.61818C5.51234 16.7539 5.457 16.4465 5.45455 16.1364Z" fill="#ADB2B8"/>
</svg>
